<?xml version="1.0" encoding="UTF-8"?>
<svg id="Objects" xmlns="http://www.w3.org/2000/svg" viewBox="0 0 1760.5 1485.16">
  <defs>
    <style>
      .cls-1 {
        fill: #fff;
      }

      .cls-2 {
        fill: #21bded;
      }
    </style>
  </defs>
  <path class="cls-1" d="M220.15,528.23c1.59,212.01,75.29,422.84,206.15,589.66,110.57,140.94,259.5,265.15,427,331.67-294.91,90.38-531.49-2.1-662.39-156.67C55.85,1133.37-3.69,918.77.18,709.78,4.06,500.81,67.25,296.55,154.7,106.72c140.79,318.11,638.97,265.58,844.41,555.96,148.76,210.29,110.04,518.85-43.32,704.79-257.22-58.74-600.02-284.27-735.64-839.24Z"/>
  <path class="cls-2" d="M1602.94,978.93c-98.95,116.85-271.06,190.71-486.33,144.97,3.58-15.8,6.6-31.73,9.05-47.78,109.9-58.19,207.35-145.15,283.02-241.61,108-137.68,168.82-311.68,170.12-486.64-85.05,348.01-268.81,539.06-445.3,632,.56-52.81-5.23-104.46-17.26-154.09-16.65-68.69-44.87-131.48-83.88-186.61-36.06-50.97-79.92-91.89-128.63-126.12,9.24-18.76,19.95-36.89,32.21-54.21C1105.47,219.19,1516.63,262.54,1632.82,0c72.17,156.67,124.33,325.25,127.53,497.71,3.19,172.47-45.94,349.58-157.42,481.23Z"/>
</svg>